<?xml version="1.0" encoding="UTF-8"?>
<svg width="256" height="256" viewBox="0 0 256 256" xmlns="http://www.w3.org/2000/svg">
  <!-- Background circle with gradient -->
  <defs>
    <linearGradient id="bgGradient" x1="0%" y1="0%" x2="100%" y2="100%">
      <stop offset="0%" style="stop-color:#FFD60A;stop-opacity:1" />
      <stop offset="100%" style="stop-color:#FFB800;stop-opacity:1" />
    </linearGradient>
    <filter id="shadow" x="-20%" y="-20%" width="140%" height="140%">
      <feDropShadow dx="2" dy="4" stdDeviation="3" flood-color="#000000" flood-opacity="0.3"/>
    </filter>
  </defs>
  
  <!-- Background circle -->
  <circle cx="128" cy="128" r="120" fill="url(#bgGradient)" filter="url(#shadow)"/>
  
  <!-- Note paper -->
  <g transform="translate(128, 128)">
    <!-- Paper shadow -->
    <rect x="-45" y="-55" width="90" height="110" rx="8" fill="#000000" opacity="0.1" transform="translate(2, 2)"/>
    
    <!-- Paper -->
    <rect x="-45" y="-55" width="90" height="110" rx="8" fill="#FFFFFF" stroke="#E0E0E0" stroke-width="1"/>
    
    <!-- Paper fold corner -->
    <path d="M 45 -55 L 45 -35 L 25 -55 Z" fill="#F5F5F5" stroke="#E0E0E0" stroke-width="1"/>
    
    <!-- Lines on the paper -->
    <line x1="-35" y1="-35" x2="35" y2="-35" stroke="#E8E8E8" stroke-width="2" stroke-linecap="round"/>
    <line x1="-35" y1="-25" x2="25" y2="-25" stroke="#E8E8E8" stroke-width="2" stroke-linecap="round"/>
    <line x1="-35" y1="-15" x2="30" y2="-15" stroke="#E8E8E8" stroke-width="2" stroke-linecap="round"/>
    <line x1="-35" y1="-5" x2="20" y2="-5" stroke="#E8E8E8" stroke-width="2" stroke-linecap="round"/>
    <line x1="-35" y1="5" x2="35" y2="5" stroke="#E8E8E8" stroke-width="2" stroke-linecap="round"/>
    <line x1="-35" y1="15" x2="25" y2="15" stroke="#E8E8E8" stroke-width="2" stroke-linecap="round"/>
    <line x1="-35" y1="25" x2="30" y2="25" stroke="#E8E8E8" stroke-width="2" stroke-linecap="round"/>
    <line x1="-35" y1="35" x2="20" y2="35" stroke="#E8E8E8" stroke-width="2" stroke-linecap="round"/>
    
    <!-- Checkbox -->
    <rect x="-35" y="45" width="12" height="12" rx="2" fill="none" stroke="#FFD60A" stroke-width="2"/>
    <path d="M -30 50 L -28 52 L -26 48" stroke="#FFD60A" stroke-width="2" fill="none" stroke-linecap="round" stroke-linejoin="round"/>
    
    <!-- Bullet point -->
    <circle cx="-15" cy="51" r="2" fill="#FFD60A"/>
    <line x1="-10" y1="51" x2="15" y2="51" stroke="#E8E8E8" stroke-width="2" stroke-linecap="round"/>
  </g>
</svg>

